<svg width="140" height="18" viewBox="0 0 140 18" fill="none" xmlns="http://www.w3.org/2000/svg">
<g clip-path="url(#clip0_3156_1408)">
<path d="M44.7087 13.6211C43.841 14.1956 42.872 14.481 41.7977 14.481C40.3742 14.481 39.191 13.9891 38.2446 13.0052C37.298 12.0214 36.8247 10.6998 36.8247 9.15271C36.8247 7.60565 37.298 6.32901 38.2333 5.33016C39.1685 4.3314 40.3592 3.82824 41.7977 3.82824C42.872 3.82824 43.8222 4.12865 44.641 4.72935C45.4598 5.33016 46.0044 6.05113 46.2787 6.88853L48.1079 5.93097C47.582 4.58293 46.7406 3.5654 45.595 2.87068C44.4494 2.17603 43.18 1.83057 41.7977 1.83057C39.7395 1.83057 38.0267 2.52899 36.6595 3.92204C35.2923 5.31511 34.6088 7.03867 34.6088 9.15271C34.6088 11.2667 35.2886 13.0128 36.6445 14.3984C38.0004 15.7839 39.7169 16.4749 41.7939 16.4749H41.8015C43.2964 16.4749 44.6222 16.1107 45.7903 15.3821C46.9585 14.6537 47.8148 13.5272 48.3595 11.9952L46.6092 11.1203C46.2073 12.213 45.5725 13.0465 44.7087 13.6211Z" fill="#1E232B"/>
<path d="M56.4128 1.83057C54.2983 1.83057 52.5629 2.51397 51.207 3.88075C49.8511 5.24756 49.1713 7.00485 49.1713 9.15271C49.1713 11.3006 49.8511 13.0579 51.207 14.4247C52.5629 15.7915 54.2983 16.4749 56.4128 16.4749C58.5274 16.4749 60.2628 15.7915 61.6187 14.4247C62.9747 13.0579 63.6544 11.3006 63.6544 9.15271C63.6544 7.00484 62.9747 5.24756 61.6187 3.88075C60.2591 2.51397 58.5275 1.83057 56.4128 1.83057ZM60.0374 13.0465C59.0984 14.0379 57.8928 14.5335 56.4167 14.5335C54.9405 14.5335 53.7348 14.0379 52.7958 13.0465C51.8568 12.0515 51.3874 10.7561 51.3874 9.15271H51.3948C51.3948 7.58687 51.8681 6.29892 52.8146 5.28886C53.7612 4.27879 54.9631 3.7719 56.4204 3.7719C57.8777 3.7719 59.0796 4.27879 60.0261 5.28886C60.9727 6.29892 61.446 7.54931 61.446 9.15271C61.446 10.7561 60.9764 12.0553 60.0374 13.0465Z" fill="#1E232B"/>
<path d="M81.0797 1.83447C79.0589 1.83447 77.6918 2.73571 76.9819 4.53802H76.3809C76.0316 3.75697 75.4794 3.11113 74.7132 2.6005C73.9507 2.0898 73.0231 1.83447 71.9826 1.83447C70.9422 1.83447 70.0746 2.09355 69.3722 2.6117C68.6698 3.12991 68.2004 3.77202 67.9637 4.53802H67.4153V2.18743H65.2594V16.1183H67.4191V7.92497C67.4191 6.72345 67.7609 5.73964 68.4444 4.97364C69.1281 4.21137 69.9919 3.82836 71.0285 3.82836C72.0653 3.82836 72.9329 4.15876 73.624 4.82338C74.3151 5.48801 74.6606 6.37418 74.6606 7.48561V16.1183H76.8203V7.92497C76.8203 6.63328 77.1697 5.62695 77.8608 4.90598C78.5519 4.18885 79.3819 3.82836 80.4562 3.82836C81.5304 3.82836 82.3906 4.15876 83.0365 4.81217C83.6826 5.46549 84.0056 6.37044 84.0056 7.51571V16.122H86.1616V7.0801C86.1616 5.60444 85.7033 4.36152 84.7831 3.35145C83.8629 2.34138 82.6271 1.83447 81.0797 1.83447Z" fill="#1E232B"/>
<path d="M104.167 1.83447C102.145 1.83447 100.778 2.73571 100.069 4.53802H99.4678C99.1189 3.75697 98.5661 3.11113 97.7999 2.6005C97.0375 2.0898 96.1098 1.83447 95.0693 1.83447C94.0289 1.83447 93.1612 2.09355 92.4589 2.6117C91.7565 3.12991 91.287 3.77202 91.0504 4.53802H90.5021V2.18743H88.3461V16.1183H90.5058V7.92497C90.5058 6.72345 90.8477 5.7358 91.5312 4.97364C92.2148 4.21137 93.0787 3.82836 94.1154 3.82836C95.152 3.82836 96.0196 4.15876 96.7107 4.82338C97.4018 5.48801 97.7476 6.37418 97.7476 7.48561V16.1183H99.9075V7.92497C99.9075 6.63328 100.256 5.62695 100.948 4.90598C101.638 4.18885 102.469 3.82836 103.543 3.82836C104.617 3.82836 105.477 4.15876 106.124 4.81217C106.769 5.46549 107.093 6.37044 107.093 7.51571V16.122H109.248V7.0801C109.248 5.60444 108.79 4.36152 107.87 3.35145C106.95 2.34138 105.714 1.83447 104.167 1.83447Z" fill="#1E232B"/>
<path d="M118.271 1.83057C116.156 1.83057 114.421 2.51397 113.066 3.88075C111.71 5.24756 111.03 7.00485 111.03 9.15271C111.03 11.3006 111.71 13.0579 113.066 14.4247C114.421 15.7915 116.156 16.4749 118.271 16.4749C120.385 16.4749 122.121 15.7915 123.477 14.4247C124.833 13.0579 125.513 11.3006 125.513 9.15271C125.513 7.00484 124.833 5.24756 123.477 3.88075C122.117 2.51397 120.385 1.83057 118.271 1.83057ZM121.896 13.0465C120.956 14.0379 119.752 14.5335 118.275 14.5335C116.799 14.5335 115.593 14.0417 114.654 13.0465C113.715 12.0515 113.246 10.7561 113.246 9.15271H113.254C113.254 7.58687 113.726 6.29892 114.673 5.28886C115.62 4.27879 116.821 3.7719 118.279 3.7719C119.736 3.7719 120.938 4.27879 121.885 5.28886C122.831 6.29892 123.304 7.54931 123.304 9.15271C123.304 10.7561 122.835 12.0553 121.896 13.0465Z" fill="#1E232B"/>
<path d="M137.998 3.3665C137.069 2.34513 135.804 1.83447 134.2 1.83447C133.141 1.83447 132.259 2.09355 131.548 2.6117C130.838 3.12991 130.366 3.77202 130.129 4.53802H129.58V2.18743H127.424V16.1183H129.58V7.92497C129.58 6.74213 129.951 5.76216 130.7 4.98858C131.447 4.21511 132.405 3.82836 133.569 3.82836C134.587 3.82836 135.455 4.1738 136.164 4.86468C136.878 5.5594 137.232 6.44184 137.232 7.51571V16.122H139.39V7.0801C139.39 5.62321 138.925 4.38787 137.998 3.3665Z" fill="#1E232B"/>
<path d="M28.7274 6.53615C27.2563 1.67905 22.1301 -1.06798 17.2724 0.394347L9.08797 2.87317L6.51957 0C1.66687 1.47867 -1.07372 6.60831 0.397353 11.4654C1.86843 16.3225 6.99462 19.0695 11.8523 17.6072L20.0418 15.1269L22.6101 18C27.4597 16.5193 30.1979 11.3916 28.7274 6.53615ZM21.59 14.6499L20.0361 15.1206L17.4678 12.2474L10.8372 14.2556C7.83053 15.1573 4.65933 13.4564 3.74887 10.4503C2.8384 7.44423 4.53297 4.26966 7.53469 3.3516L9.09358 2.87946L11.662 5.75263L18.2875 3.74595C21.2942 2.84425 24.4654 4.54512 25.3759 7.55122C26.2863 10.5573 24.5917 13.7319 21.59 14.6499Z" fill="#1E232B"/>
</g>
<defs>
<clipPath id="clip0_3156_1408">
<rect width="139.5" height="18" fill="white"/>
</clipPath>
</defs>
</svg>
